<svg xmlns="http://www.w3.org/2000/svg" viewBox="0 0 1900 668" role="img" aria-labelledby="title desc">
  <title id="title">Clean real estate city skyline banner</title>
  <desc id="desc">Dark navy banner with a gold outlined city skyline along the bottom.</desc>
  <rect width="1900" height="668" fill="#11284b"/>
  <g fill="none" stroke="#9a7a38" stroke-width="3" stroke-linejoin="round" stroke-linecap="round" opacity="0.88">
    <path d="M0 642H1900"/>
    <path d="M0 606h57v36H0zM65 357h57v285H65zM91 348h25M75 378h37M80 407h31M78 434h34M79 463h33M78 491h35M75 522h37M78 551h35M78 582h34"/>
    <path d="M128 448h38v194h-38zM166 476h45v166h-45zM211 438h35v204h-35zM246 466h38v176h-38zM286 506h64v136h-64z"/>
    <path d="M356 479l58-38v201h-58zM426 477h42v165h-42zM468 515h48v127h-48zM519 431h64v211h-64z"/>
    <path d="M593 608h43v34h-43zM641 374h62v268h-62zM652 359h39M657 401h36M656 432h37M655 463h38M655 494h38M655 526h38M655 557h38M655 588h38"/>
    <path d="M714 520h58v122h-58zM782 482h64v160h-64zM856 425h62v217h-62zM930 497h74v145h-74zM1017 386h68v256h-68z"/>
    <path d="M1029 369h44M1028 417h46M1028 448h46M1028 479h46M1028 510h46M1028 541h46M1028 572h46M1028 603h46"/>
    <path d="M1095 508h54v134h-54zM1155 444h54v198h-54zM1216 501h58v141h-58zM1282 475h52v167h-52zM1343 522h53v120h-53z"/>
    <path d="M1406 360h66v282h-66zM1416 344h46M1417 391h43M1417 424h43M1417 456h43M1417 488h43M1417 520h43M1417 552h43M1417 584h43"/>
    <path d="M1484 457h59v185h-59zM1554 511h70v131h-70zM1634 442h51v200h-51zM1696 505h54v137h-54zM1760 395h54v247h-54zM1770 385h35"/>
    <path d="M1824 474h45v168h-45zM1871 511h29v131h-29z"/>
    <path d="M0 665h1900M35 625h178M253 625h138M438 625h210M687 625h162M895 625h265M1204 625h164M1415 625h247M1709 625h191"/>
  </g>
  <g fill="none" stroke="#9a7a38" stroke-width="2" opacity="0.45">
    <path d="M65 392h57M65 421h57M65 450h57M65 479h57M65 508h57M65 537h57M65 566h57M65 595h57"/>
    <path d="M641 418h62M641 449h62M641 480h62M641 511h62M641 542h62M641 573h62M641 604h62"/>
    <path d="M1017 432h68M1017 463h68M1017 494h68M1017 525h68M1017 556h68M1017 587h68"/>
    <path d="M1406 407h66M1406 439h66M1406 471h66M1406 503h66M1406 535h66M1406 567h66M1406 599h66"/>
  </g>
</svg>
