<svg xmlns="http://www.w3.org/2000/svg" viewBox="0 0 1900 900" preserveAspectRatio="xMidYMid slice">
  <defs>
    <linearGradient id="land" x1="0" x2="1" y1="0" y2="1">
      <stop offset="0" stop-color="#d7e5d4"/>
      <stop offset=".45" stop-color="#a8754b"/>
      <stop offset="1" stop-color="#5f432d"/>
    </linearGradient>
  </defs>
  <rect width="1900" height="900" fill="url(#land)"/>
  <rect y="0" width="1900" height="165" fill="#dcebf2" opacity=".88"/>
  <g stroke="#2f3b2f" stroke-width="2" opacity=".2">
    <path d="M0 250H1900M0 390H1900M0 535H1900M0 690H1900"/>
    <path d="M185 165V900M410 165V900M635 165V900M860 165V900M1085 165V900M1310 165V900M1535 165V900M1760 165V900"/>
  </g>
  <path d="M-40 660C230 580 410 515 640 510c330-7 520 130 835 80 170-27 290-86 465-105" fill="none" stroke="#141414" stroke-width="82" stroke-linecap="round"/>
  <path d="M915 920C960 720 1000 555 1150 455c132-88 292-118 455-245" fill="none" stroke="#171717" stroke-width="82" stroke-linecap="round"/>
  <path d="M-20 660C235 590 405 530 640 525c320-6 515 125 835 80 168-24 298-86 460-104" fill="none" stroke="#f8fafc" stroke-width="5" stroke-dasharray="56 46" opacity=".9"/>
  <path d="M920 920C970 722 1010 575 1160 470c126-88 286-118 445-245" fill="none" stroke="#f8fafc" stroke-width="5" stroke-dasharray="56 46" opacity=".9"/>
  <g fill="none" stroke="#e5e7eb" stroke-width="6" opacity=".75">
    <rect x="210" y="265" width="178" height="130"/>
    <rect x="410" y="260" width="178" height="130"/>
    <rect x="610" y="255" width="178" height="130"/>
    <rect x="810" y="250" width="178" height="130"/>
    <rect x="1250" y="255" width="178" height="130"/>
    <rect x="1450" y="245" width="178" height="130"/>
    <rect x="1650" y="235" width="178" height="130"/>
    <rect x="170" y="720" width="180" height="120"/>
    <rect x="380" y="700" width="180" height="120"/>
    <rect x="590" y="690" width="180" height="120"/>
    <rect x="1280" y="650" width="185" height="122"/>
    <rect x="1505" y="610" width="185" height="122"/>
  </g>
  <g fill="#8bc34a">
    <circle cx="490" cy="570" r="22"/><circle cx="595" cy="545" r="18"/><circle cx="705" cy="546" r="18"/><circle cx="820" cy="565" r="20"/>
    <circle cx="1030" cy="660" r="20"/><circle cx="1095" cy="590" r="18"/><circle cx="1175" cy="520" r="20"/><circle cx="1275" cy="474" r="18"/>
    <circle cx="1395" cy="440" r="20"/><circle cx="1518" cy="390" r="19"/>
  </g>
  <g stroke="#e5e7eb" stroke-width="4">
    <path d="M260 630v-42M360 600v-42M470 575v-42M584 555v-42M700 556v-42M820 578v-42M940 605v-42M1075 630v-42M1215 615v-42M1360 580v-42M1500 540v-42"/>
  </g>
  <path d="M0 900h1900V780c-198 52-372 86-582 78-246-10-412-92-652-100-250-8-450 82-666 96Z" fill="#111827" opacity=".24"/>
</svg>
